<svg data-v-423bf9ae="" xmlns="http://www.w3.org/2000/svg" viewBox="0 0 547.7679335493292 60" class="font"><!----><!----><!----><g data-v-423bf9ae="" id="7fb200e0-f46e-41c9-b53d-bc32c2c0f7d1" fill="white" transform="matrix(6.696429255665635,0,0,6.696429255665635,-5.156256926763092,-56.45090066884933)"><path d="M0.77 17.18L0.77 8.43L3.54 8.43L5.45 11.49L5.45 11.49Q5.80 12.08 5.80 12.49L5.80 12.49L5.88 12.49L5.88 8.43L8.68 8.43L8.68 17.18L5.91 17.18L4.00 14.11L4.00 14.11Q3.65 13.52 3.65 13.12L3.65 13.12L3.57 13.12L3.57 17.18L0.77 17.18ZM13.86 15.34L13.86 15.34Q15.02 15.34 16.35 14.98L16.35 14.98L16.69 16.91L16.69 16.91Q15.25 17.39 13.58 17.39L13.58 17.39L13.58 17.39Q11.68 17.39 10.77 16.48L10.77 16.48L10.77 16.48Q9.87 15.58 9.87 13.68L9.87 13.68L9.87 13.68Q9.87 11.76 10.77 10.86L10.77 10.86L10.77 10.86Q11.66 9.97 13.58 9.97L13.58 9.97L13.58 9.97Q14.87 9.97 15.57 10.19L15.57 10.19L15.57 10.19Q16.27 10.40 16.57 10.91L16.57 10.91L16.57 10.91Q16.87 11.42 16.87 12.35L16.87 12.35L16.87 12.35Q16.87 13.20 16.48 13.71L16.48 13.71L16.48 13.71Q16.09 14.21 15.23 14.43L15.23 14.43L15.23 14.43Q14.36 14.66 12.88 14.66L12.88 14.66L12.88 15.29L12.88 15.29Q13.17 15.34 13.86 15.34L13.86 15.34ZM13.85 12.00L13.85 12.00Q13.30 12.00 13.09 12.11L13.09 12.11L13.09 12.11Q12.88 12.22 12.88 12.53L12.88 12.53L12.88 13.26L13.38 13.26L13.38 13.26Q13.93 13.26 14.14 13.13L14.14 13.13L14.14 13.13Q14.35 13.01 14.35 12.67L14.35 12.67L14.35 12.00L13.85 12.00ZM25.06 10.18L25.06 17.18L23.66 17.18L22.96 16.48L22.96 16.48Q21.73 17.39 20.16 17.39L20.16 17.39L20.16 17.39Q19.07 17.39 18.56 16.91L18.56 16.91L18.56 16.91Q18.06 16.42 18.06 15.36L18.06 15.36L18.06 10.18L20.86 10.18L20.86 15.50L21.71 15.50L21.71 15.50Q22.01 15.50 22.13 15.41L22.13 15.41L22.13 15.41Q22.26 15.32 22.26 15.11L22.26 15.11L22.26 10.18L25.06 10.18ZM27.86 10.18L28.63 11.10L28.63 11.10Q29.46 10.23 30.70 9.97L30.70 9.97L30.87 12.68L30.87 12.68Q30.55 12.71 30.02 12.90L30.02 12.90L30.02 12.90Q29.48 13.09 29.26 13.24L29.26 13.24L29.26 17.18L26.46 17.18L26.46 10.18L27.86 10.18ZM35.07 17.39L35.07 17.39Q33.17 17.39 32.26 16.48L32.26 16.48L32.26 16.48Q31.36 15.58 31.36 13.68L31.36 13.68L31.36 13.68Q31.36 11.76 32.26 10.86L32.26 10.86L32.26 10.86Q33.15 9.97 35.07 9.97L35.07 9.97L35.07 9.97Q36.99 9.97 37.88 10.86L37.88 10.86L37.88 10.86Q38.78 11.76 38.78 13.68L38.78 13.68L38.78 13.68Q38.78 15.60 37.88 16.49L37.88 16.49L37.88 16.49Q36.99 17.39 35.07 17.39L35.07 17.39ZM34.37 15.29L35.22 15.29L35.22 15.29Q35.53 15.29 35.65 15.20L35.65 15.20L35.65 15.20Q35.77 15.12 35.77 14.90L35.77 14.90L35.77 12.07L34.92 12.07L34.92 12.07Q34.61 12.07 34.49 12.15L34.49 12.15L34.49 12.15Q34.37 12.24 34.37 12.46L34.37 12.46L34.37 15.29ZM42.77 17.18L42.77 8.43L45.54 8.43L47.45 11.49L47.45 11.49Q47.80 12.08 47.80 12.49L47.80 12.49L47.88 12.49L47.88 8.43L50.68 8.43L50.68 17.18L47.91 17.18L46.00 14.11L46.00 14.11Q45.65 13.52 45.65 13.12L45.65 13.12L45.57 13.12L45.57 17.18L42.77 17.18ZM55.86 15.34L55.86 15.34Q57.02 15.34 58.35 14.98L58.35 14.98L58.69 16.91L58.69 16.91Q57.25 17.39 55.58 17.39L55.58 17.39L55.58 17.39Q53.68 17.39 52.77 16.48L52.77 16.48L52.77 16.48Q51.87 15.58 51.87 13.68L51.87 13.68L51.87 13.68Q51.87 11.76 52.77 10.86L52.77 10.86L52.77 10.86Q53.66 9.97 55.58 9.97L55.58 9.97L55.58 9.97Q56.87 9.97 57.57 10.19L57.57 10.19L57.57 10.19Q58.27 10.40 58.57 10.91L58.57 10.91L58.57 10.91Q58.87 11.42 58.87 12.35L58.87 12.35L58.87 12.35Q58.87 13.20 58.48 13.71L58.48 13.71L58.48 13.71Q58.09 14.21 57.22 14.43L57.22 14.43L57.22 14.43Q56.36 14.66 54.88 14.66L54.88 14.66L54.88 15.29L54.88 15.29Q55.17 15.34 55.86 15.34L55.86 15.34ZM55.85 12.00L55.85 12.00Q55.30 12.00 55.09 12.11L55.09 12.11L55.09 12.11Q54.88 12.22 54.88 12.53L54.88 12.53L54.88 13.26L55.38 13.26L55.38 13.26Q55.93 13.26 56.14 13.13L56.14 13.13L56.14 13.13Q56.35 13.01 56.35 12.67L56.35 12.67L56.35 12.00L55.85 12.00ZM67.26 10.18L65.03 13.83L67.26 17.18L64.15 17.18L63.22 15.79L62.47 17.18L59.47 17.18L61.70 13.52L59.47 10.18L62.58 10.18L63.50 11.56L64.26 10.18L67.26 10.18ZM74.93 10.18L74.93 17.18L73.53 17.18L72.83 16.48L72.83 16.48Q71.60 17.39 70.03 17.39L70.03 17.39L70.03 17.39Q68.94 17.39 68.43 16.91L68.43 16.91L68.43 16.91Q67.93 16.42 67.93 15.36L67.93 15.36L67.93 10.18L70.73 10.18L70.73 15.50L71.58 15.50L71.58 15.50Q71.88 15.50 72.00 15.41L72.00 15.41L72.00 15.41Q72.13 15.32 72.13 15.11L72.13 15.11L72.13 10.18L74.93 10.18ZM76.08 12.33L76.08 12.33Q76.08 11.12 76.83 10.54L76.83 10.54L76.83 10.54Q77.59 9.97 79.20 9.97L79.20 9.97L79.20 9.97Q80.81 9.97 82.22 10.28L82.22 10.28L81.90 12.21L81.90 12.21Q81.23 12.03 80.26 12.03L80.26 12.03L80.26 12.03Q79.53 12.03 79.09 12.17L79.09 12.17L79.09 12.67L79.09 12.67Q80.39 12.81 81.14 13.08L81.14 13.08L81.14 13.08Q81.90 13.34 82.24 13.80L82.24 13.80L82.24 13.80Q82.57 14.27 82.57 14.99L82.57 14.99L82.57 14.99Q82.57 16.24 81.72 16.81L81.72 16.81L81.72 16.81Q80.88 17.39 79.04 17.39L79.04 17.39L79.04 17.39Q78.23 17.39 77.41 17.26L77.41 17.26L77.41 17.26Q76.59 17.14 75.98 16.91L75.98 16.91L76.33 14.90L76.33 14.90Q77.32 15.33 78.57 15.33L78.57 15.33L78.57 15.33Q78.92 15.33 79.56 15.22L79.56 15.22L79.56 14.67L79.56 14.67Q78.18 14.53 77.43 14.29L77.43 14.29L77.43 14.29Q76.69 14.04 76.38 13.59L76.38 13.59L76.38 13.59Q76.08 13.13 76.08 12.33L76.08 12.33Z"></path></g><!----><!----></svg>